<svg width="99" height="40" viewBox="0 0 99 40" fill="none" xmlns="http://www.w3.org/2000/svg">
<path d="M22.2 22.224C22.2 18.624 20.508 16.644 17.016 15.348V15.276C19.644 13.908 20.976 11.892 20.976 9.264C20.976 6.888 20.076 5.052 18.312 3.756C16.548 2.46 14.46 1.812 11.976 1.812H0.27597V30H12.156C17.088 30 22.2 27.948 22.2 22.224ZM15.252 10.164C15.252 12.216 13.776 13.26 10.788 13.26H5.96397V7.176H11.184C13.488 7.176 15.252 8.004 15.252 10.164ZM16.512 21.468C16.512 23.556 15.036 24.6 12.084 24.6H5.96397V18.3H11.904C14.964 18.3 16.512 19.344 16.512 21.468ZM29.153 0.587999C27.281 0.587999 25.697 2.172 25.697 4.08C25.697 5.988 27.281 7.536 29.153 7.536C31.133 7.536 32.681 5.988 32.681 4.08C32.681 2.1 31.133 0.587999 29.153 0.587999ZM32.033 30V10.776H26.381V30H32.033ZM49.0892 25.248C48.6932 25.356 48.2612 25.392 47.7932 25.392C45.5972 25.392 44.4452 24.528 44.4452 22.332V15.636H49.1972V10.776H44.4452V4.764H38.9012V10.776H35.3732V15.636H38.8292V23.016C38.8292 27.516 41.4572 30.252 46.4612 30.252C47.3972 30.252 48.2612 30.144 49.0892 29.892V25.248ZM67.8882 24.204C67.8882 20.856 65.3322 18.948 60.4722 17.94C58.7802 17.58 57.9522 17.004 57.9522 16.176C57.9522 15.42 58.8162 14.772 59.9682 14.772C61.5882 14.772 62.7402 15.384 63.4602 16.608L67.5282 14.196C66.2682 11.856 63.6762 10.308 60.1122 10.308C58.0962 10.308 56.3682 10.884 54.8922 12.036C53.4522 13.152 52.7322 14.628 52.7322 16.392C52.7322 19.524 55.0002 21.612 59.5722 22.62C62.0202 23.16 62.6322 23.736 62.6322 24.492C62.6322 25.248 61.6962 25.896 60.2922 25.896C58.2042 25.896 56.7642 25.104 55.9722 23.556L51.8322 26.004C53.3802 28.956 56.1882 30.432 60.2202 30.432C64.9722 30.432 67.8882 27.912 67.8882 24.204ZM76.9352 27.948L72.2192 39.468H78.2312L89.8952 10.776H84.0992L79.8152 21.756L75.0272 10.776H68.8352L76.9352 27.948ZM94.4098 30.432C95.4898 30.432 96.3898 30.036 97.1458 29.28C97.9018 28.524 98.2978 27.588 98.2978 26.544C98.2978 24.384 96.5698 22.62 94.4098 22.62C92.2498 22.62 90.5218 24.384 90.5218 26.544C90.5218 27.588 90.9178 28.524 91.6738 29.28C92.4298 30.036 93.3658 30.432 94.4098 30.432Z" fill="white"/>
</svg>
